<?xml version="1.0" standalone="no"?>
<!DOCTYPE svg PUBLIC "-//W3C//DTD SVG 20010904//EN"
 "http://www.w3.org/TR/2001/REC-SVG-20010904/DTD/svg10.dtd">
<svg version="1.0" xmlns="http://www.w3.org/2000/svg"
 width="1088.000000pt" height="960.000000pt" viewBox="0 0 1088.000000 960.000000"
 preserveAspectRatio="xMidYMid meet">

<g transform="translate(0.000000,960.000000) scale(0.100000,-0.100000)"
fill="#000000" stroke="none">
<path d="M3280 7864 c-69 -7 -145 -18 -170 -24 -25 -6 -67 -15 -94 -20 -28 -5
-70 -16 -95 -24 -26 -9 -86 -27 -136 -42 -49 -15 -94 -31 -99 -35 -6 -5 -16
-9 -24 -9 -15 0 -30 -6 -162 -68 -232 -107 -469 -284 -615 -458 -28 -32 -55
-65 -62 -72 -50 -53 -168 -259 -213 -372 -12 -30 -27 -66 -32 -80 -34 -81 -52
-156 -99 -405 -5 -27 -10 -151 -10 -275 0 -174 3 -238 16 -284 8 -32 20 -91
25 -130 27 -202 146 -475 286 -657 82 -107 245 -253 364 -326 134 -83 417
-211 565 -257 28 -8 93 -29 145 -45 52 -16 178 -53 280 -81 102 -28 239 -67
305 -86 66 -19 127 -34 136 -34 9 0 39 -7 65 -15 27 -8 137 -39 244 -70 269
-75 260 -72 406 -126 265 -98 399 -175 526 -304 87 -89 116 -137 154 -255 24
-77 27 -100 27 -235 0 -145 -1 -153 -32 -230 -17 -44 -48 -102 -69 -130 -78
-103 -226 -200 -372 -244 -85 -26 -281 -58 -400 -65 -178 -12 -561 32 -745 85
-152 44 -172 50 -230 68 -133 43 -336 139 -545 258 -144 81 -354 240 -497 375
-43 41 -67 57 -76 51 -8 -4 -33 -30 -56 -58 -71 -84 -133 -156 -206 -240 -39
-44 -106 -122 -150 -174 -44 -52 -128 -148 -188 -214 -59 -65 -107 -123 -107
-127 0 -24 151 -177 300 -304 255 -218 497 -367 815 -503 260 -112 640 -218
905 -253 41 -6 116 -18 165 -27 75 -15 151 -17 465 -17 261 0 388 4 417 12 23
7 79 17 125 23 99 12 375 78 496 118 48 16 137 50 197 76 98 42 133 59 252
126 133 75 330 245 437 379 133 166 268 414 290 535 4 21 14 51 21 65 7 14 23
75 36 135 20 97 23 139 23 350 1 310 -15 417 -101 690 -24 77 -94 228 -132
284 -10 14 -33 49 -51 76 -58 85 -181 225 -257 289 -215 185 -584 375 -923
476 -145 43 -205 62 -240 75 -19 7 -78 25 -130 39 -52 15 -117 34 -145 42 -27
8 -93 26 -145 40 -52 14 -135 37 -185 50 -49 14 -115 31 -146 39 -31 8 -67 18
-80 24 -13 5 -51 17 -84 27 -496 140 -796 309 -910 511 -51 93 -68 172 -62
301 9 210 61 328 200 459 116 108 222 158 417 194 259 49 684 25 912 -51 50
-16 96 -30 101 -30 17 0 -3 67 -64 217 -33 81 -71 175 -84 208 -117 301 -169
439 -185 490 -30 98 -70 206 -91 247 l-19 38 -238 -1 c-130 -1 -293 -7 -362
-15z"/>
<path d="M4298 7873 c-10 -2 -18 -10 -18 -17 0 -14 69 -185 109 -271 15 -33
40 -94 56 -135 15 -41 38 -102 51 -135 12 -33 38 -100 57 -150 19 -49 65 -169
102 -265 37 -96 83 -218 101 -270 18 -52 47 -133 64 -180 17 -47 37 -103 45
-125 7 -22 23 -65 35 -95 12 -30 37 -100 56 -155 18 -55 45 -131 59 -170 43
-116 65 -178 77 -215 5 -19 14 -39 18 -45 4 -5 13 -26 18 -45 16 -50 88 -253
119 -334 30 -76 50 -94 164 -142 273 -114 538 -293 735 -496 164 -168 266
-317 372 -548 145 -312 200 -715 157 -1160 -17 -179 -66 -412 -99 -465 -6 -11
-25 -51 -41 -90 -29 -70 -74 -159 -104 -205 -28 -45 -41 -72 -41 -89 0 -10 15
-55 33 -102 19 -46 46 -118 62 -159 25 -66 47 -120 76 -185 5 -11 22 -57 39
-103 42 -118 57 -142 83 -142 498 -2 1039 -1 1042 2 3 3 26 65 51 139 25 74
61 172 79 219 36 90 48 123 96 260 16 47 32 92 36 100 16 39 69 180 147 395
20 55 40 109 45 120 19 44 61 152 75 195 8 25 24 70 36 100 34 90 50 133 65
175 7 22 25 69 38 105 77 204 120 320 133 363 8 26 35 100 60 165 26 64 53
140 61 167 8 28 19 55 23 60 4 6 11 21 15 35 3 14 17 52 30 85 13 33 53 143
90 245 37 102 75 205 85 230 21 52 24 59 170 470 60 168 123 343 141 390 29
78 85 233 146 405 14 39 31 86 39 105 19 51 107 288 150 405 84 231 106 290
179 480 43 110 97 255 121 322 43 123 69 192 129 343 57 145 85 218 85 225 0
3 11 30 24 58 31 69 44 109 39 125 -4 9 -144 12 -658 12 -697 0 -665 2 -679
-50 -4 -14 -11 -34 -16 -45 -12 -28 -52 -144 -61 -180 -8 -29 -36 -107 -99
-275 -17 -47 -53 -148 -80 -225 -27 -77 -61 -171 -75 -210 -14 -38 -34 -95
-45 -125 -31 -93 -50 -144 -65 -177 -8 -17 -15 -39 -15 -48 0 -9 -5 -26 -12
-38 -11 -21 -71 -185 -108 -299 -11 -31 -23 -65 -29 -75 -5 -10 -14 -36 -19
-58 -10 -40 -84 -253 -101 -290 -15 -31 -61 -160 -81 -223 -18 -58 -76 -225
-150 -432 -81 -228 -162 -456 -180 -510 -33 -99 -91 -265 -97 -280 -26 -65
-116 -324 -223 -640 -95 -282 -85 -260 -115 -260 -14 0 -27 6 -29 13 -25 83
-97 303 -124 377 -19 52 -45 127 -58 165 -13 39 -37 108 -54 155 -17 47 -49
137 -70 200 -50 146 -102 293 -141 395 -28 71 -111 304 -174 485 -13 36 -44
121 -70 190 -49 128 -128 351 -170 475 -13 39 -39 111 -58 160 -19 50 -64 180
-101 290 -37 110 -71 209 -76 220 -12 29 -53 143 -99 275 -41 118 -140 403
-191 545 -16 44 -59 170 -97 280 -61 178 -71 200 -93 206 -27 8 -1274 10
-1302 2z"/>
</g>
</svg>
